<?xml version="1.0" standalone="no"?>
<!DOCTYPE svg PUBLIC "-//W3C//DTD SVG 20010904//EN"
 "http://www.w3.org/TR/2001/REC-SVG-20010904/DTD/svg10.dtd">
<svg version="1.0" xmlns="http://www.w3.org/2000/svg"
 width="500.000000pt" height="500.000000pt" viewBox="0 0 500.000000 500.000000"
 preserveAspectRatio="xMidYMid meet">

<g transform="translate(0.000000,500.000000) scale(0.100000,-0.100000)"
fill="#000000" stroke="none">
<path d="M2285 4284 c-27 -8 -93 -19 -145 -25 -54 -6 -101 -16 -111 -25 -8 -7
-38 -17 -65 -20 -27 -3 -60 -14 -74 -23 -14 -10 -43 -21 -64 -25 -22 -4 -51
-16 -64 -27 -14 -10 -32 -19 -42 -19 -10 0 -28 -9 -42 -19 -13 -11 -37 -23
-52 -27 -15 -3 -30 -13 -33 -20 -2 -7 -20 -18 -39 -24 -19 -6 -34 -16 -34 -21
0 -6 -13 -15 -30 -20 -16 -6 -30 -15 -30 -20 0 -5 -15 -16 -32 -25 -18 -9 -39
-25 -46 -35 -7 -11 -18 -19 -23 -19 -13 0 -249 -236 -249 -249 0 -5 -8 -16
-19 -23 -10 -7 -26 -28 -35 -45 -9 -18 -20 -33 -25 -33 -5 0 -14 -13 -20 -30
-5 -16 -14 -30 -20 -30 -5 0 -15 -15 -21 -34 -6 -19 -17 -37 -24 -39 -7 -3
-17 -18 -20 -33 -4 -15 -16 -39 -27 -52 -10 -14 -19 -32 -19 -42 0 -10 -9 -28
-19 -42 -11 -13 -23 -42 -27 -64 -4 -21 -15 -50 -25 -64 -9 -14 -20 -47 -23
-74 -3 -27 -13 -57 -21 -66 -8 -9 -17 -47 -21 -91 -3 -40 -15 -107 -25 -148
-27 -106 -27 -356 0 -462 10 -41 22 -108 25 -148 4 -44 13 -82 21 -91 8 -9 18
-39 21 -66 3 -27 14 -60 23 -74 10 -14 21 -43 25 -64 4 -22 16 -51 27 -64 10
-14 19 -32 19 -42 0 -10 9 -28 19 -42 11 -13 23 -37 27 -52 3 -15 13 -30 20
-33 7 -2 18 -20 24 -39 6 -19 16 -34 21 -34 6 0 15 -13 20 -30 6 -16 15 -30
20 -30 5 0 16 -15 25 -33 9 -17 25 -38 35 -45 11 -7 19 -18 19 -23 0 -13 236
-249 249 -249 5 0 16 -8 23 -19 7 -10 28 -26 46 -35 17 -9 32 -20 32 -25 0 -5
14 -14 30 -20 17 -5 30 -14 30 -20 0 -5 15 -15 34 -21 19 -6 37 -17 39 -24 3
-7 18 -17 33 -20 15 -4 39 -16 52 -27 14 -10 32 -19 42 -19 10 0 28 -9 42 -19
13 -11 42 -23 64 -27 21 -4 50 -15 64 -25 14 -9 47 -20 74 -23 27 -3 57 -13
66 -21 9 -8 47 -17 91 -21 40 -3 107 -15 148 -25 106 -27 356 -27 462 0 41 10
108 22 148 25 44 4 82 13 91 21 9 8 39 18 66 21 27 3 60 14 74 23 14 10 43 21
64 25 22 4 51 16 64 27 14 10 32 19 42 19 10 0 28 9 42 19 13 11 37 23 52 27
15 3 30 13 33 20 2 7 20 18 39 24 19 6 34 16 34 21 0 6 14 15 30 20 17 6 30
15 30 20 0 5 15 16 33 25 17 9 38 25 45 35 7 11 18 19 23 19 13 0 249 236 249
249 0 5 8 16 19 23 10 7 26 28 35 45 9 18 20 33 25 33 5 0 14 14 20 30 5 17
14 30 20 30 5 0 15 15 21 34 6 19 17 37 24 39 7 3 17 18 20 33 4 15 16 39 27
52 10 14 19 32 19 42 0 10 9 28 19 42 11 13 23 42 27 64 4 21 15 50 25 64 9
14 20 47 23 74 3 27 13 57 21 66 8 9 17 47 21 91 3 40 15 107 25 148 27 106
27 356 0 462 -10 41 -22 108 -25 148 -4 44 -13 82 -21 91 -8 9 -18 39 -21 66
-3 27 -14 60 -23 74 -10 14 -21 43 -25 64 -4 22 -16 51 -27 64 -10 14 -19 32
-19 42 0 10 -9 28 -19 42 -11 13 -23 37 -27 52 -3 15 -13 30 -20 33 -7 2 -18
20 -24 39 -6 19 -16 34 -21 34 -6 0 -15 14 -20 30 -6 17 -15 30 -20 30 -5 0
-16 15 -25 33 -9 17 -25 38 -35 45 -11 7 -19 18 -19 23 0 13 -236 249 -249
249 -5 0 -16 8 -23 19 -7 10 -28 26 -45 35 -18 9 -33 20 -33 25 0 5 -13 14
-30 20 -16 5 -30 14 -30 20 0 5 -15 15 -34 21 -19 6 -37 17 -39 24 -3 7 -18
17 -33 20 -15 4 -39 16 -52 27 -14 10 -32 19 -42 19 -10 0 -28 9 -42 19 -13
11 -42 23 -64 27 -21 4 -50 15 -64 25 -14 9 -47 20 -74 23 -27 3 -57 13 -66
21 -9 8 -47 17 -91 21 -40 3 -107 15 -148 25 -95 24 -367 26 -446 3z m-214
-956 c34 -11 70 -41 234 -197 89 -85 224 -210 400 -370 49 -45 94 -80 100 -78
6 2 11 107 12 302 1 164 4 304 7 312 5 11 31 13 128 11 l123 -3 0 -805 0 -805
-123 -3 c-97 -2 -123 0 -128 11 -3 8 -6 148 -7 312 -1 195 -6 300 -12 302 -6
2 -51 -33 -100 -78 -176 -160 -311 -285 -400 -370 -169 -160 -200 -186 -239
-199 -47 -15 -103 0 -138 37 l-23 25 0 768 c0 753 0 768 20 790 21 23 69 48
96 49 9 1 31 -4 50 -11z"/>
</g>
</svg>
