<?xml version="1.0" standalone="no"?>
<!DOCTYPE svg PUBLIC "-//W3C//DTD SVG 20010904//EN"
 "http://www.w3.org/TR/2001/REC-SVG-20010904/DTD/svg10.dtd">
<svg version="1.0" xmlns="http://www.w3.org/2000/svg"
 width="500.000000pt" height="500.000000pt" viewBox="0 0 500.000000 500.000000"
 preserveAspectRatio="xMidYMid meet">

<g transform="translate(0.000000,500.000000) scale(0.100000,-0.100000)"
fill="#000000" stroke="none">
<path d="M2285 4284 c-27 -8 -93 -19 -145 -25 -54 -6 -101 -16 -111 -25 -8 -7
-38 -17 -65 -20 -27 -3 -60 -14 -74 -23 -14 -10 -43 -21 -64 -25 -22 -4 -51
-16 -64 -27 -14 -10 -32 -19 -42 -19 -10 0 -28 -9 -42 -19 -13 -11 -37 -23
-52 -27 -15 -3 -30 -13 -33 -20 -2 -7 -20 -18 -39 -24 -19 -6 -34 -16 -34 -21
0 -6 -13 -15 -30 -20 -16 -6 -30 -15 -30 -20 0 -5 -15 -16 -32 -25 -18 -9 -39
-25 -46 -35 -7 -11 -18 -19 -23 -19 -13 0 -249 -236 -249 -249 0 -5 -8 -16
-19 -23 -10 -7 -26 -28 -35 -45 -9 -18 -20 -33 -25 -33 -5 0 -14 -13 -20 -30
-5 -16 -14 -30 -20 -30 -5 0 -15 -15 -21 -34 -6 -19 -17 -37 -24 -39 -7 -3
-17 -18 -20 -33 -4 -15 -16 -39 -27 -52 -10 -14 -19 -32 -19 -42 0 -10 -9 -28
-19 -42 -11 -13 -23 -42 -27 -64 -4 -21 -15 -50 -25 -64 -9 -14 -20 -47 -23
-74 -3 -27 -13 -57 -21 -66 -8 -9 -17 -47 -21 -91 -3 -40 -15 -107 -25 -148
-27 -106 -27 -356 0 -462 10 -41 22 -108 25 -148 4 -44 13 -82 21 -91 8 -9 18
-39 21 -66 3 -27 14 -60 23 -74 10 -14 21 -43 25 -64 4 -22 16 -51 27 -64 10
-14 19 -32 19 -42 0 -10 9 -28 19 -42 11 -13 23 -37 27 -52 3 -15 13 -30 20
-33 7 -2 18 -20 24 -39 6 -19 16 -34 21 -34 6 0 15 -13 20 -30 6 -16 15 -30
20 -30 5 0 16 -15 25 -33 9 -17 25 -38 35 -45 11 -7 19 -18 19 -23 0 -13 236
-249 249 -249 5 0 16 -8 23 -19 7 -10 28 -26 46 -35 17 -9 32 -20 32 -25 0 -5
14 -14 30 -20 17 -5 30 -14 30 -20 0 -5 15 -15 34 -21 19 -6 37 -17 39 -24 3
-7 18 -17 33 -20 15 -4 39 -16 52 -27 14 -10 32 -19 42 -19 10 0 28 -9 42 -19
13 -11 42 -23 64 -27 21 -4 50 -15 64 -25 14 -9 47 -20 74 -23 27 -3 57 -13
66 -21 9 -8 47 -17 91 -21 40 -3 107 -15 148 -25 106 -27 356 -27 462 0 41 10
108 22 148 25 44 4 82 13 91 21 9 8 39 18 66 21 27 3 60 14 74 23 14 10 43 21
64 25 22 4 51 16 64 27 14 10 32 19 42 19 10 0 28 9 42 19 13 11 37 23 52 27
15 3 30 13 33 20 2 7 20 18 39 24 19 6 34 16 34 21 0 6 14 15 30 20 17 6 30
15 30 20 0 5 15 16 33 25 17 9 38 25 45 35 7 11 18 19 23 19 13 0 249 236 249
249 0 5 8 16 19 23 10 7 26 28 35 45 9 18 20 33 25 33 5 0 14 14 20 30 5 17
14 30 20 30 5 0 15 15 21 34 6 19 17 37 24 39 7 3 17 18 20 33 4 15 16 39 27
52 10 14 19 32 19 42 0 10 9 28 19 42 11 13 23 42 27 64 4 21 15 50 25 64 9
14 20 47 23 74 3 27 13 57 21 66 8 9 17 47 21 91 3 40 15 107 25 148 27 106
27 356 0 462 -10 41 -22 108 -25 148 -4 44 -13 82 -21 91 -8 9 -18 39 -21 66
-3 27 -14 60 -23 74 -10 14 -21 43 -25 64 -4 22 -16 51 -27 64 -10 14 -19 32
-19 42 0 10 -9 28 -19 42 -11 13 -23 37 -27 52 -3 15 -13 30 -20 33 -7 2 -18
20 -24 39 -6 19 -16 34 -21 34 -6 0 -15 14 -20 30 -6 17 -15 30 -20 30 -5 0
-16 15 -25 33 -9 17 -25 38 -35 45 -11 7 -19 18 -19 23 0 13 -236 249 -249
249 -5 0 -16 8 -23 19 -7 10 -28 26 -45 35 -18 9 -33 20 -33 25 0 5 -13 14
-30 20 -16 5 -30 14 -30 20 0 5 -15 15 -34 21 -19 6 -37 17 -39 24 -3 7 -18
17 -33 20 -15 4 -39 16 -52 27 -14 10 -32 19 -42 19 -10 0 -28 9 -42 19 -13
11 -42 23 -64 27 -21 4 -50 15 -64 25 -14 9 -47 20 -74 23 -27 3 -57 13 -66
21 -9 8 -47 17 -91 21 -40 3 -107 15 -148 25 -95 24 -367 26 -446 3z m270
-964 c15 -6 57 -37 93 -69 37 -33 110 -96 162 -141 52 -46 120 -106 150 -134
30 -28 84 -76 120 -106 36 -30 67 -58 70 -61 3 -4 25 -23 50 -44 93 -77 217
-195 229 -219 12 -21 11 -29 -8 -60 -33 -52 -87 -96 -120 -96 -22 0 -54 23
-138 98 -60 53 -136 119 -168 147 -33 27 -125 108 -205 180 -196 177 -268 235
-290 235 -22 0 -94 -58 -290 -235 -80 -72 -172 -153 -205 -180 -32 -28 -108
-94 -168 -147 -84 -75 -116 -98 -138 -98 -33 0 -87 44 -120 96 -19 31 -20 39
-8 60 12 24 136 142 229 219 25 21 47 40 50 44 3 3 34 31 70 61 36 30 90 77
120 106 30 28 98 88 150 134 52 45 125 108 162 141 37 33 77 63 90 68 31 13
81 13 113 1z m50 -442 c50 -44 135 -119 190 -167 55 -47 107 -93 115 -101 46
-44 193 -174 246 -219 34 -28 65 -58 68 -67 3 -8 6 -152 6 -319 0 -303 0 -304
-22 -319 -19 -13 -60 -16 -245 -16 -217 0 -223 1 -248 23 l-27 23 1 212 c1
134 -2 219 -9 232 -10 19 -21 20 -180 20 -159 0 -170 -1 -180 -20 -7 -13 -10
-98 -9 -232 l1 -212 -27 -23 c-25 -22 -31 -23 -248 -23 -185 0 -226 3 -245 16
-22 15 -22 16 -22 319 0 167 3 311 6 319 3 9 34 39 68 67 53 45 200 175 246
219 8 8 60 54 115 101 55 48 141 123 190 167 50 45 97 82 105 82 8 0 56 -37
105 -82z"/>
</g>
</svg>
